<svg data-logo="logo" xmlns="http://www.w3.org/2000/svg" viewBox="0 0 261 42">
            <g style="opacity: 1;" id="logogram" transform="translate(0, 1) rotate(0)"><path d="M21.3474 0.349945L46.7544 25.7266V39.3499H34.8978V30.624L16.4444 12.1924H12.611V39.3499H0.754395V0.349945H21.3474ZM34.8978 13.8842V0.349945H46.7544V13.8842H34.8978Z" fill="#FFFFFF"></path></g>
            <g style="opacity: 1;" id="logotype" transform="translate(53, 5.5)"><path fill="#FFFFFF" d="M16.30 4.32L23.71 4.32L33.32 31L26.56 31L18.73 7.71L21.24 7.71L13.37 31L6.65 31L16.30 4.32ZM10.79 26.29L12.38 21.31L26.98 21.31L28.61 26.29L10.79 26.29ZM41.42 31L34.99 31L34.99 9.80L41.42 9.80L41.42 14.32Q41.87 12.84 42.90 11.77Q43.92 10.71 45.27 10.12Q46.62 9.53 48.07 9.53L48.07 9.53Q50.50 9.53 52.28 10.63Q54.07 11.73 55.06 13.75Q56.05 15.76 56.05 18.54L56.05 18.54L56.05 31L49.62 31L49.62 19.56Q49.62 17.40 48.52 16.14Q47.42 14.89 45.56 14.89L45.56 14.89Q44.30 14.89 43.37 15.55Q42.44 16.22 41.93 17.36Q41.42 18.50 41.42 19.94L41.42 19.94L41.42 31ZM65.70 31L59.28 31L59.28 2.88L65.70 2.88L65.70 18.08Q67.45 17.70 69.02 16.52Q70.60 15.34 71.74 13.60Q72.88 11.85 73.30 9.80L73.30 9.80L80.10 9.80Q79.53 12.15 78.16 14.28Q76.79 16.41 74.99 18.00Q73.18 19.60 71.17 20.44L71.17 20.44Q72.73 20.82 74.21 21.84Q75.69 22.87 76.97 24.29Q78.24 25.72 79.13 27.45Q80.02 29.18 80.37 31L80.37 31L73.49 31Q73.15 29.37 72.39 27.98Q71.63 26.59 70.58 25.57Q69.54 24.54 68.28 23.89Q67.03 23.25 65.70 23.06L65.70 23.06L65.70 31ZM87.85 31L81.47 31L81.47 9.80L87.85 9.80L87.85 31ZM84.70 7.55L84.70 7.55Q82.84 7.55 81.66 6.49Q80.48 5.43 80.48 3.83L80.48 3.83Q80.48 2.20 81.66 1.11Q82.84 0.03 84.70 0.03L84.70 0.03Q86.52 0.03 87.70 1.11Q88.88 2.20 88.88 3.83L88.88 3.83Q88.88 5.43 87.70 6.49Q86.52 7.55 84.70 7.55ZM100.20 31.27L100.20 31.27Q96.71 31.27 94.84 29.35Q92.98 27.43 92.98 23.78L92.98 23.78L92.98 15.00L89.60 15.00L89.60 9.80L103.62 9.80L103.62 15.00L99.40 15.00L99.40 23.86Q99.40 24.77 99.99 25.28Q100.58 25.79 101.42 25.79L101.42 25.79Q101.80 25.79 102.12 25.70Q102.44 25.60 102.75 25.41L102.75 25.41L104.34 30.13Q103.43 30.62 102.43 30.94Q101.42 31.27 100.20 31.27ZM97.01 9.80L91.27 11.51L91.27 9.80Q92.11 9.80 92.64 9.26Q93.17 8.73 93.17 7.90L93.17 7.90L93.17 4.63L99.40 4.63L99.40 6.91Q99.40 7.44 99.14 8.07Q98.87 8.69 98.32 9.17Q97.77 9.64 97.01 9.80L97.01 9.80ZM119.85 31L113.43 31L113.43 4.32L123.91 4.32Q127.18 4.32 129.35 5.46Q131.51 6.60 132.62 8.54Q133.72 10.48 133.72 12.91L133.72 12.91Q133.72 15.08 132.69 17.02Q131.67 18.95 129.50 20.17Q127.33 21.39 123.91 21.39L123.91 21.39L119.85 21.39L119.85 31ZM119.85 9.53L119.85 16.26L123.42 16.26Q125.40 16.26 126.27 15.34Q127.14 14.43 127.14 12.91L127.14 12.91Q127.14 11.35 126.27 10.44Q125.40 9.53 123.42 9.53L123.42 9.53L119.85 9.53ZM143.22 31.27L143.22 31.27Q140.44 31.27 138.37 29.82Q136.30 28.38 135.18 25.93Q134.06 23.48 134.06 20.40L134.06 20.40Q134.06 17.36 135.18 14.89Q136.30 12.42 138.37 10.97Q140.44 9.53 143.22 9.53L143.22 9.53Q145.65 9.53 147.46 10.84Q149.26 12.15 149.98 14.51L149.98 14.51L149.98 9.80L156.40 9.80L156.40 31L153.25 31Q151.73 31 150.86 30.14Q149.98 29.29 149.98 27.77L149.98 27.77L149.98 26.33Q149.26 28.64 147.46 29.95Q145.65 31.27 143.22 31.27ZM145.31 25.64L145.31 25.64Q146.56 25.64 147.63 25.03Q148.69 24.43 149.34 23.25Q149.98 22.07 149.98 20.40L149.98 20.40Q149.98 18.76 149.34 17.59Q148.69 16.41 147.63 15.76Q146.56 15.12 145.31 15.12L145.31 15.12Q144.02 15.12 142.95 15.76Q141.89 16.41 141.26 17.59Q140.63 18.76 140.63 20.40L140.63 20.40Q140.63 22.07 141.26 23.25Q141.89 24.43 142.97 25.03Q144.05 25.64 145.31 25.64ZM168.87 31.27L168.87 31.27Q165.37 31.27 163.51 29.35Q161.65 27.43 161.65 23.78L161.65 23.78L161.65 15.00L158.27 15.00L158.27 9.80L172.29 9.80L172.29 15.00L168.07 15.00L168.07 23.86Q168.07 24.77 168.66 25.28Q169.25 25.79 170.08 25.79L170.08 25.79Q170.46 25.79 170.79 25.70Q171.11 25.60 171.41 25.41L171.41 25.41L173.01 30.13Q172.10 30.62 171.09 30.94Q170.08 31.27 168.87 31.27ZM165.68 9.80L159.94 11.51L159.94 9.80Q160.77 9.80 161.31 9.26Q161.84 8.73 161.84 7.90L161.84 7.90L161.84 4.63L168.07 4.63L168.07 6.91Q168.07 7.44 167.80 8.07Q167.54 8.69 166.99 9.17Q166.44 9.64 165.68 9.80L165.68 9.80ZM185.25 31.27L185.25 31.27Q182.93 31.27 180.82 30.54Q178.71 29.82 177.09 28.43Q175.48 27.05 174.55 25.07Q173.62 23.10 173.62 20.55L173.62 20.55Q173.62 18.12 174.51 16.10Q175.40 14.09 176.94 12.61Q178.48 11.13 180.51 10.33Q182.55 9.53 184.83 9.53L184.83 9.53Q186.69 9.53 188.38 10.02Q190.07 10.52 191.42 11.47Q192.77 12.42 193.55 13.71Q194.33 15.00 194.33 16.60L194.33 16.60Q194.33 18.61 193.19 19.94Q192.05 21.27 190.20 22.03Q188.36 22.79 186.18 23.12Q183.99 23.44 181.86 23.40L181.86 23.40Q181.60 23.40 181.24 23.38Q180.88 23.36 180.57 23.34Q180.27 23.32 180.12 23.32L180.12 23.32Q180.34 24.20 181.08 24.90Q181.83 25.60 182.97 26.02Q184.11 26.44 185.32 26.44L185.32 26.44Q186.54 26.44 187.66 26.02Q188.78 25.60 189.69 24.96Q190.60 24.31 191.25 23.51L191.25 23.51L195.35 26.74Q194.21 28.26 192.58 29.27Q190.95 30.28 189.06 30.77Q187.18 31.27 185.25 31.27ZM181.90 19.18L181.90 19.18Q182.93 19.18 184.03 19.07Q185.13 18.95 186.06 18.67Q186.99 18.38 187.58 17.87Q188.17 17.36 188.17 16.56L188.17 16.56Q188.17 15.91 187.72 15.42Q187.26 14.93 186.50 14.66Q185.74 14.39 184.87 14.39L184.87 14.39Q183.35 14.39 182.21 15.12Q181.07 15.84 180.46 16.92Q179.85 18.00 179.77 19.11L179.77 19.11Q180.12 19.14 180.70 19.16Q181.29 19.18 181.90 19.18ZM197.06 24.43L197.06 24.43L197.06 2.88L203.49 2.88L203.49 24.12Q203.49 24.96 204.00 25.38Q204.51 25.79 205.20 25.79L205.20 25.79Q205.65 25.79 206.07 25.64L206.07 25.64L207.10 30.58Q205.58 31.27 203.68 31.27L203.68 31.27Q202.08 31.27 200.56 30.62Q199.04 29.97 198.05 28.47Q197.06 26.97 197.06 24.43Z"></path></g>
            
          </svg>